<svg id="Layer_1" data-name="Layer 1" xmlns="http://www.w3.org/2000/svg" viewBox="0 0 100 100"><defs><style>.cls-1{fill:#1b4380;fill-rule:evenodd;}</style></defs><path id="easy_purchase" data-name="easy purchase" class="cls-1" d="M18.27,67.48h6.89a1.19,1.19,0,0,1-.89-1.15V32.88a1.2,1.2,0,0,1,1.18-1.19H75.21a1.2,1.2,0,0,1,1.19,1.19V66.32a1.19,1.19,0,0,1-.89,1.15h7.2a1.39,1.39,0,0,1,1.37,1.41h0a1.39,1.39,0,0,1-1.39,1.39H18.27a1.4,1.4,0,0,1-1.39-1.39h0a1.4,1.4,0,0,1,1.39-1.39ZM64.59,40H70a.42.42,0,0,1,.42.42h0v1.24a.41.41,0,0,1-.41.42H64.59a.42.42,0,0,1-.42-.42h0V40.44a.42.42,0,0,1,.42-.42Zm-9.13,0h5.17a.42.42,0,0,1,.42.42h0v1.24a.42.42,0,0,1-.42.4H55.46a.42.42,0,0,1-.42-.42h0V40.44a.42.42,0,0,1,.42-.42ZM45.07,40H51a.42.42,0,0,1,.42.42v1.24a.42.42,0,0,1-.42.42H45.05a.41.41,0,0,1-.42-.41h0V40.44a.42.42,0,0,1,.42-.42h0Zm17.2,22.6a.94.94,0,1,1,0-1.88H67a.94.94,0,0,1,0,1.88H62.27Zm-14.15,0a.94.94,0,0,1,0-1.88h4.76a.94.94,0,0,1,0,1.88H48.12ZM34,62.63a.94.94,0,0,1,0-1.88h4.76a.94.94,0,0,1,0,1.88ZM58.85,46.46H70.42V58.07H58.85Zm5.76,8a.48.48,0,0,1-.48.48.49.49,0,0,1-.48-.48.48.48,0,0,1,.48-.48A.47.47,0,0,1,64.61,54.46Zm-2.94-4.72a.2.2,0,0,1,.2-.19h.29a.9.9,0,0,1,.48.12.73.73,0,0,1,.32.46h0l0,.19h4.37a.2.2,0,0,1,.2.2v.06l-.51,2.05a.21.21,0,0,1-.2.15h-3.2c.07.26.14.41.24.47a1.2,1.2,0,0,0,.65.07h2.27a.2.2,0,0,1,0,.4H64.56a1.53,1.53,0,0,1-.87-.14,1.29,1.29,0,0,1-.43-.82h0l-.67-2.48h0a.34.34,0,0,0-.15-.22.55.55,0,0,0-.28-.07H62c-.14,0-.34,0-.34-.2Zm5,4.7a.47.47,0,0,1-.48.48.48.48,0,1,1,0-1h0A.47.47,0,0,1,66.72,54.44Zm-22-8H56.26V58.07H44.7Zm5.76,8a.48.48,0,0,1-.48.48.49.49,0,0,1-.48-.48A.48.48,0,0,1,50,54h0A.47.47,0,0,1,50.46,54.46Zm-3-4.72a.18.18,0,0,1,.19-.19H48a.85.85,0,0,1,.47.12.74.74,0,0,1,.33.46h0l.05.19h4.37a.19.19,0,0,1,.19.2v.06l-.51,2.05a.19.19,0,0,1-.19.15H49.52c.07.26.14.41.24.47a1.21,1.21,0,0,0,.65.07h2.27a.2.2,0,0,1,0,.4H50.41a1.55,1.55,0,0,1-.87-.14,1.25,1.25,0,0,1-.43-.82h0l-.67-2.48h0a.34.34,0,0,0-.15-.22A.55.55,0,0,0,48,50h-.14c-.14,0-.34,0-.34-.2Zm5,4.7a.49.49,0,1,1-.48-.48h0a.48.48,0,0,1,.48.48Zm-22-8H42.11V58.07H30.55Zm5.76,8a.49.49,0,0,1-.48.48.48.48,0,0,1-.48-.48.47.47,0,0,1,.48-.48h0a.47.47,0,0,1,.48.47Zm-2.94-4.72a.2.2,0,0,1,.2-.19h.29a.82.82,0,0,1,.48.12.74.74,0,0,1,.31.46h0l.05.19h4.38a.2.2,0,0,1,.19.2.06.06,0,0,1,0,.06l-.52,2.09a.18.18,0,0,1-.18.15h-3.2a.82.82,0,0,0,.24.46,1.3,1.3,0,0,0,.65.08h2.26a.2.2,0,1,1,0,.39H36.26a1.53,1.53,0,0,1-.87-.14A1.25,1.25,0,0,1,35,52.8h0l-.67-2.51h0a.34.34,0,0,0-.15-.23.52.52,0,0,0-.27-.07h-.14c-.14,0-.34,0-.34-.2Zm5,4.7a.48.48,0,1,1-.48-.48h0a.49.49,0,0,1,.49.48Zm-6.33-19.9a.95.95,0,0,1,0,1.89.93.93,0,0,1-1-.94h0A1,1,0,0,1,32.08,34.54Zm3.19,0a.95.95,0,1,1-.94,1h0A1,1,0,0,1,35.27,34.54Zm-6.36,0a.95.95,0,1,1-.94,1h0A1,1,0,0,1,28.91,34.54Zm-2.59,3.28h48.2V66H26.29V37.8ZM48.53,68h3.9a.67.67,0,0,1,.67.66h0a.67.67,0,0,1-.67.67h-3.9a.67.67,0,0,1-.67-.67h0a.67.67,0,0,1,.67-.66Z"/></svg>