<svg id="Layer_1" data-name="Layer 1" xmlns="http://www.w3.org/2000/svg" viewBox="0 0 100 100"><defs><style>.cls-1{fill:#1b4380;}</style></defs><path id="car_exchange" data-name="car exchange" class="cls-1" d="M41.75,46.89c0,.85.07,1.86,0,2.7a3.39,3.39,0,0,1-.18,1,2.53,2.53,0,0,1-1,1.4,2.82,2.82,0,0,1-1.65.43,4.43,4.43,0,0,1-1.14-.22,2.52,2.52,0,0,1-.58-.32c-1.74-1.37-3.55-2.84-5.37-4.31s-3.37-2.74-5.26-4.23l-.11-.11A3.26,3.26,0,0,1,25.53,42a2.63,2.63,0,0,1-.09-1.47A2.94,2.94,0,0,1,26,39.36a4.33,4.33,0,0,1,.8-.8c3.29-2.48,6.56-5.31,9.8-7.91a4.38,4.38,0,0,1,2.63-1,2.64,2.64,0,0,1,1.07.23l.09.05a2.44,2.44,0,0,1,.8.66,3.61,3.61,0,0,1,.7,2.35v2.24H51.94a2,2,0,0,1,2,2v7.8a2,2,0,0,1-2,2Zm16.49,6.22c0-.85-.06-1.86,0-2.7a4.2,4.2,0,0,1,.18-1,2.63,2.63,0,0,1,1-1.4l.08,0a2.79,2.79,0,0,1,1.57-.37,4,4,0,0,1,1.13.22l.3.12.25.18c1.75,1.36,3.57,2.84,5.38,4.31s3.39,2.76,5.29,4.24l.11.09a3.26,3.26,0,0,1,.89,1.31,2.6,2.6,0,0,1,.09,1.46l0,.13a3.08,3.08,0,0,1-.5,1,4.33,4.33,0,0,1-.8.8c-3.29,2.48-6.57,5.31-9.78,7.9a4.33,4.33,0,0,1-2.63,1.06,2.67,2.67,0,0,1-1.07-.23l-.09,0a2.47,2.47,0,0,1-.8-.67,3.72,3.72,0,0,1-.7-2.35V64.88H48.05a2,2,0,0,1-2-2V55.1a2,2,0,0,1,2-2ZM39.57,49.34V45.79a1.09,1.09,0,0,1,1.09-1.1H51.72V37.33h-11a1.08,1.08,0,0,1-1.08-1.1h0V32.89a1.72,1.72,0,0,0-.22-1l-.08-.06a.33.33,0,0,0-.17,0,2.31,2.31,0,0,0-1.26.59l-9.79,7.9a2.22,2.22,0,0,0-.41.4,1.11,1.11,0,0,0-.14.29.53.53,0,0,0,0,.25,1.17,1.17,0,0,0,.3.4c1.71,1.34,3.51,2.8,5.29,4.25s3.43,2.77,5.33,4.25a1.18,1.18,0,0,0,.46.09.54.54,0,0,0,.35-.06.51.51,0,0,0,.18-.26,1.76,1.76,0,0,0,.07-.4v-.15Z"/></svg>