<svg id="Layer_1" data-name="Layer 1" xmlns="http://www.w3.org/2000/svg" viewBox="0 0 100 100"><defs><style>.cls-1{fill:#1b4380;fill-rule:evenodd;}</style></defs><path id="Path_3571" data-name="Path 3571" class="cls-1" d="M64.41,49.54v14.1H61.12V61.46H41.68v2.18H38.39V49.54H37.25V47.37H40l1.54-4.81c.46-1.41,1.22-2.7,2.71-2.7H59.1c1.49,0,2.35,1.26,2.71,2.7L63,47.37h2.55v2.17ZM31,31.84a4.38,4.38,0,0,0-4.36,4.37V67.29a4.39,4.39,0,0,0,4.37,4.37H71.76a4.39,4.39,0,0,0,4.37-4.37V36.21a4.37,4.37,0,0,0-4.37-4.37Zm.5,37.24a2.3,2.3,0,0,1-2.28-2.29V36.71a2.3,2.3,0,0,1,2.28-2.29H71.26a2.29,2.29,0,0,1,2.28,2.29V66.79a2.29,2.29,0,0,1-2.28,2.29Zm14.92-12H56.2V59.4H46.46Zm-7-5.34c2.48.07,4,1.11,4.39,3.28H39.49Zm23.51,0c-2.48.07-4,1.11-4.38,3.28H63Zm-21.8-4.4H61.59l-.87-4c-.24-1.11-.93-2.06-2.06-2.06H44.56c-1.14,0-1.71,1-2.06,2.06Z"/></svg>