<svg id="Layer_1" data-name="Layer 1" xmlns="http://www.w3.org/2000/svg" viewBox="0 0 100 100"><defs><style>.cls-1,.cls-2{fill:#1b4380;}.cls-1{fill-rule:evenodd;}</style></defs><g id="Group_2546" data-name="Group 2546"><path id="Path_3572" data-name="Path 3572" class="cls-1" d="M61.77,48.58a3.94,3.94,0,0,1,3.15,1.58,3.92,3.92,0,1,1,.8,5.49,3.62,3.62,0,0,1-.8-.81,3.92,3.92,0,1,1-3.15-6.26ZM42.85,45.36c4.34,2.75,8.26,4,11.63,3.75a30.07,30.07,0,0,1-1.29,11.15H73.53a1.15,1.15,0,0,0,1.14-1.13V44.19H28.79V59.13a1.14,1.14,0,0,0,1.13,1.13h2.75a33.2,33.2,0,0,1-1.41-11.34,16.61,16.61,0,0,0,11.59-3.56ZM52.6,61.82A16.51,16.51,0,0,1,42.89,71a16,16,0,0,1-9.63-9.14H29.92a2.69,2.69,0,0,1-2.69-2.69V33.33a2.68,2.68,0,0,1,2.69-2.69H73.53a2.69,2.69,0,0,1,2.69,2.69V59.12a2.71,2.71,0,0,1-2.69,2.7ZM42.85,47.74c3.61,2.29,6.87,3.37,9.67,3.12a24.18,24.18,0,0,1-1.23,9.66l0,.07-.09.23,0,.09a2,2,0,0,1-.09.22l0,.08-.1.22,0,.1-.08.18-.06.12a13.71,13.71,0,0,1-7.84,7,13.19,13.19,0,0,1-7.79-7v-.06l0,0a1.08,1.08,0,0,0-.08-.19v-.05l0,0v-.05l-.09-.19v-.07l-.12-.29v0l-.09-.22v-.1l-.08-.23v0a26.7,26.7,0,0,1-1.24-9.56A13.79,13.79,0,0,0,42.85,47.74ZM28.79,36.44H74.66V33.33a1.15,1.15,0,0,0-1.14-1.14H29.92a1.14,1.14,0,0,0-1.13,1.14Z"/><path id="Path_3573" data-name="Path 3573" class="cls-2" d="M37,57.48l2.06,0,.16,0a8,8,0,0,1,1.18.82,7.48,7.48,0,0,1,.75.74,29.41,29.41,0,0,1,2.36-3.29,27.59,27.59,0,0,1,2.9-3l.2-.07H48.9l-.45.5a47.38,47.38,0,0,0-3.8,4.8,46.62,46.62,0,0,0-3.08,5.12l-.28.54L41,63.09a13.64,13.64,0,0,0-1.74-2.82A11.1,11.1,0,0,0,36.88,58Z"/></g></svg>