<svg id="Layer_1" data-name="Layer 1" xmlns="http://www.w3.org/2000/svg" viewBox="0 0 100 100"><defs><style>.cls-1{fill:#1b4380;fill-rule:evenodd;}</style></defs><path id="Vehicles" class="cls-1" d="M67.11,41.5H73c1.82,0,2.87,1.54,3.31,3.31l1,4.28L78,47.94c3.17-.18,3.45,1.66.1,3.24l.56.82c2.2,2.28,2,4.52,1.65,10.11v1.82a1,1,0,0,1-1,1H74.85a1,1,0,0,1-1-1v-.8H72.18v-1c.08-1.33.15-2.5.19-3.54l2.61,0a1.71,1.71,0,0,0,.88-.24,1.44,1.44,0,0,0,.53-.59l.42-1c.32-.8.07-1.18-.86-1.08l-3.57.43a9,9,0,0,0-1.21-4.3,5.41,5.41,0,0,0,.64-.87h0a4.69,4.69,0,0,0,.33-.72h3.71l-1.07-4.44c-.29-1.37-1.13-2.53-2.52-2.53H67.83A11,11,0,0,0,67.11,41.5ZM38.81,51c-3.19-1.61-2.81-3.41.38-3.22l.71,1.34,1.47-4.56c.58-1.82,1.55-3.46,3.44-3.46H61.45c1.89,0,3,1.6,3.44,3.43L66,48.94l.63-1.2c3.28-.19,3.58,1.72.1,3.36l.57.87c2.27,2.34,2.07,4.68,1.71,10.47v1.9A1.08,1.08,0,0,1,68,65.42h-4.6a1.08,1.08,0,0,1-1.07-1.08v-.85H42.82v.86a1.08,1.08,0,0,1-1.07,1.08H37.19a1.07,1.07,0,0,1-1.07-1.08h0V61.71c-.35-4.44-.84-8.45,2.7-10.74Zm5.85,5.27-4.07-.51c-1-.11-1.22.3-.91,1.12l.46,1.07a1.52,1.52,0,0,0,.54.61,2,2,0,0,0,.91.26l3.64,0c.88,0,1.26-.36,1-1.16a2,2,0,0,0-1.54-1.42Zm15.78,0,4.07-.51c.95-.11,1.21.3.91,1.12L65,57.92a1.62,1.62,0,0,1-.55.61,1.83,1.83,0,0,1-.91.25l-3.65,0c-.87,0-1.25-.35-1-1.16a2,2,0,0,1,1.55-1.41Zm-19-6.14H64.36l-1.09-4.61c-.32-1.4-1.2-2.6-2.64-2.6H45.43c-1.44,0-2.19,1.23-2.62,2.6L41.42,50.1Zm-2.21-8.6H32.07c-1.82,0-2.87,1.54-3.31,3.31l-1.07,4.28-.61-1.15c-3.16-.18-3.44,1.66-.1,3.24l-.54.82c-2.2,2.28-2,4.55-1.65,10.13V64a1,1,0,0,0,1,1h4.42a1,1,0,0,0,1-1h0v-.82h1.64V61.72l0-.33c-.08-1-.15-1.87-.2-2.78l-2.6,0a1.69,1.69,0,0,1-.88-.22,1.47,1.47,0,0,1-.55-.61l-.42-1c-.3-.8,0-1.19.88-1.09l3.58.46a10,10,0,0,1,1.46-4.94c-.08-.12-.15-.23-.21-.34a4.34,4.34,0,0,1-.28-.62H29.26l1.07-4.44c.29-1.36,1.14-2.52,2.53-2.52h5.6A13.42,13.42,0,0,1,39.21,41.5Z"/></svg>