<svg id="Layer_1" data-name="Layer 1" xmlns="http://www.w3.org/2000/svg" viewBox="0 0 100 100"><defs><style>.cls-1{fill:#1b4380;fill-rule:evenodd;}</style></defs><path id="Path_3589" data-name="Path 3589" class="cls-1" d="M68.81,40.81l-10.17.69L61,38.79c-2.79-3.71-6.16-5.3-10.48-4.51,5.05-5,11-4.37,15.24-.89l2.43-2.76ZM67.19,74.26l-34.71-20,10.42-18,34.71,20ZM52,60.51a6.13,6.13,0,1,1,8.37-2.24h0A6.13,6.13,0,0,1,52,60.52Zm11,7.65L39.9,54.84a3.09,3.09,0,0,0-1.13-4.21l4.12-7.13a3.08,3.08,0,0,0,4.2-1.13L70.18,55.69A3.08,3.08,0,0,0,71.3,59.9L67.19,67A3.09,3.09,0,0,0,63,68.16ZM30.25,64l10.18-.68L38,66.05c2.78,3.71,6.15,5.3,10.47,4.52-5,5-10.95,4.37-15.24.88l-2.43,2.76Z"/></svg>