<?xml version="1.0" encoding="utf-8"?>
<!-- Generator: Adobe Illustrator 24.3.0, SVG Export Plug-In . SVG Version: 6.00 Build 0)  -->
<svg version="1.1" id="Layer_1" xmlns="http://www.w3.org/2000/svg" xmlns:xlink="http://www.w3.org/1999/xlink" x="0px" y="0px"
	 viewBox="0 0 1080 1080" style="enable-background:new 0 0 1080 1080;" xml:space="preserve">
<style type="text/css">
	.st0{fill:#FF611D;}
	.st1{fill:#171F32;}
	.st2{fill:#FFFFFF;}
	.st3{fill:#004681;}
	.st4{fill:#FF0000;}
	.st5{fill:#FF0005;}
	.st6{fill:#004C86;}
	.st7{fill:#004983;}
	.st8{fill:#004884;}
	.st9{fill:#E2000F;}
	.st10{fill-rule:evenodd;clip-rule:evenodd;fill:#1B4380;}
	.st11{fill:#1B4380;}
	.st12{fill:none;stroke:#1B4380;stroke-width:3;stroke-miterlimit:10;}
	.st13{fill-rule:evenodd;clip-rule:evenodd;fill:#FFFFFF;}
</style>
<g>
	<path class="st9" d="M987.44,530.74h27.25c-0.92,4.2-1.41,9.1-1.26,14.99v36.45c0.19,4.19,0.03,10.95,1.41,14.95h-27.4
		c1.39-3.94,1.41-10.76,1.41-14.95v-36.48C988.67,541.63,988.71,534.69,987.44,530.74 M568.93,584.97v-66.1
		c0-4.9-0.16-7.21-1.69-12.15h71.56c5.7,0,10.12,1.46,13.25,4.4c3.15,2.94,4.73,7.32,4.73,13.11v12.8c0,3.91-0.71,6.83-2.14,8.73
		c-2.3,3.62-10.13,5.56-11.81,5.78c0.67,0.08,1.93,0.28,3.76,0.6c2.71,0.59,4.73,1.34,6.05,2.26c2.75,1.93,4.14,5.44,4.14,10.5
		v14.69c0,2.94-0.42,5.51-1.25,7.67c-0.82,2.19-2.02,4.05-3.58,5.55c-3.13,2.85-7.51,4.28-13.16,4.28h-71.56
		C568.58,592.55,568.71,589.63,568.93,584.97z M595.48,585.53h30.91c3.13,0,4.68-2.02,4.68-6.07v-16.1c0-4.05-1.55-6.07-4.68-6.07
		h-30.91V585.53z M595.48,545.71h30.91c3.13,0,4.68-2.02,4.68-6.07v-15.25c0-4.05-1.55-6.07-4.68-6.07h-30.91V545.71z
		 M671.06,530.74h27.25c-0.92,4.2-1.41,9.1-1.26,14.99v36.45c0.19,4.19,0.03,10.95,1.41,14.95h-27.4
		c1.39-3.94,1.41-10.76,1.41-14.95v-36.48C672.29,541.63,672.33,534.69,671.06,530.74z M672.9,508.42h23.73v15.82H672.9V508.42z
		 M767.64,530.59v14.69c-5.14-1.44-11.53-1.41-16.78-1.41h-9.37c-2.8,0-4.21,1.18-4.21,3.53v34.7c0.22,4.85,0.14,10.34,1.41,15.02
		h-27.4c1.44-4.06,1.41-10.69,1.41-14.99v-36.53c-0.2-4.7-0.09-10.51-1.41-14.99h23.59l1.04,7.34c0.4-2.61,1.72-4.52,3.37-5.74
		c1.72-1.06,4.5-1.6,8.36-1.6H767.64z M777.43,508.42h23.73v15.82h-23.73V508.42z M815.26,530.59h24.55l0.64,6.87
		c0.73-2.47,1.95-4.24,3.08-5.3c1.15-1.06,2.75-1.58,4.78-1.58h30.2c5.65,0,9.84,1.44,12.59,4.28c2.73,2.85,4.1,7.37,4.1,13.53
		v33.71c0.19,4.47,0.07,10.81,1.41,14.99h-27.4c1.32-3.3,1.41-11.68,1.41-14.99v-36.3c0-3.18-1.44-4.78-4.28-4.78h-20.88
		c-2.8,0-4.21,1.6-4.21,4.78v36.3c0.19,4.21,0.09,10.91,1.41,14.99h-27.4c1.47-4.11,1.41-10.77,1.41-14.99v-36.53
		C816.48,541.36,816.6,534.49,815.26,530.59z M963.89,541.05h-28.54c-2.85,0-4.28,1.6-4.28,4.78v36.06c0,3.18,1.44,4.78,4.28,4.78
		h28.59c4.44,0,7.9,0,12.36-0.85l-2,11.3h-51.13c-5.65,0-9.84-1.44-12.59-4.28c-2.73-2.85-4.1-7.37-4.1-13.53v-30.88
		c0-6.17,1.39-10.69,4.17-13.53c2.8-2.85,6.97-4.28,12.52-4.28h51.13l2,11.42C971.72,541.05,968.44,541.05,963.89,541.05z
		 M989.27,508.42H1013v15.82h-23.73V508.42z M775.59,530.74h27.25c-0.92,4.2-1.41,9.1-1.26,14.99v36.45
		c0.19,4.19,0.03,10.95,1.41,14.95h-27.4c1.39-3.94,1.41-10.76,1.41-14.95v-36.48C776.82,541.63,776.87,534.69,775.59,530.74z"/>
	<path class="st9" d="M282.41,595.69H112.75c1.94-16.72,7.86-32.49,17.71-47.22c9.85-14.78,28.32-32.21,55.41-52.29
		c16.58-12.31,27.19-21.64,31.88-28.04c4.64-6.39,6.96-12.46,6.96-18.19c0-6.2-2.27-11.51-6.87-15.91
		c-4.59-4.41-10.37-6.58-17.33-6.58c-7.2,0-13.12,2.27-17.71,6.82c-4.59,4.59-7.67,12.6-9.24,24.16l-56.55-4.59
		c2.23-15.96,6.3-28.37,12.22-37.32c5.92-8.95,14.26-15.77,25.01-20.56c10.8-4.78,25.72-7.15,44.76-7.15
		c19.89,0,35.33,2.27,46.42,6.82c11.04,4.5,19.75,11.46,26.05,20.84c6.35,9.43,9.52,19.94,9.52,31.59c0,12.36-3.65,24.2-10.89,35.52
		c-7.25,11.27-20.46,23.68-39.64,37.18c-11.37,7.86-18.99,13.4-22.83,16.53c-3.84,3.17-8.34,7.25-13.55,12.36h47.27v46.04
		L282.41,595.69L282.41,595.69z"/>
	<rect x="241.35" y="549.65" class="st13" width="46.99" height="46.04"/>
	<path class="st2" d="M441.34,476.6h37.47v91.57h58.67v29.84h-96.14V476.6z M318.88,476.6h100.38v25.94h-62.74v19.33h58.16v24.76
		h-58.16v23.91h64.6v27.47H318.88V476.6z"/>
	<rect x="112.77" y="627.58" class="st13" width="909.26" height="64.61"/>
	<path class="st11" d="M992.47,640.79v-5.28h4.82v5.28H992.47z M990.75,674.9v-30.47h8.26v30.47H990.75z M955.03,674.9v-7.12
		l14.58-16.27h-13.66v-7.08h24.01v7.28l-14.21,16.1h14.21v7.08H955.03z M922.42,674.9v-30.47h22.89v6.79h-14.72v5.28h14.29v5.87
		h-14.29v5.74h15.04v6.79H922.42z M887.47,674.9v-30.47h8.17v11.44h0.64l7.33-11.44h9.72l-10.05,14.75l11.06,15.71h-10.09l-8-12.15
		h-0.59v12.15H887.47z M852.39,674.9v-30.47h12.29c4.69,0,7.91,0.61,9.65,1.85c1.75,1.24,2.62,3.4,2.62,6.5v2.45
		c0,2.06-0.5,3.67-1.49,4.84c-0.99,1.17-2.47,1.87-4.41,2.12c2.06,0.34,3.56,1.03,4.5,2.05c0.94,1.03,1.41,2.49,1.41,4.38v6.29
		h-8.34v-5.48c0-1.3-0.25-2.19-0.75-2.68c-0.5-0.48-1.42-0.73-2.77-0.73h-4.53v8.88H852.39z M860.56,659.15h4.57
		c1.36,0,2.29-0.24,2.78-0.72c0.5-0.47,0.74-1.35,0.74-2.64v-1.17c0-1.29-0.25-2.19-0.75-2.67c-0.5-0.48-1.42-0.73-2.77-0.73h-4.57
		V659.15z M818.61,674.9v-30.47h22.89v6.79h-14.72v5.28h14.29v5.87h-14.29v5.74h15.04v6.79H818.61z M795.46,644.44h11.94v30.47
		h-7.96v-22.38l-6.12,22.38h-8.17l-6.16-22.63v22.63h-7.96v-30.47h11.94l6.24,22.04L795.46,644.44z M722.57,674.9v-30.47h22.89v6.79
		h-14.72v5.28h14.29v5.87h-14.29v5.74h15.04v6.79H722.57z M699.43,644.44h11.94v30.47h-7.96v-22.38l-6.12,22.38h-8.17l-6.16-22.63
		v22.63h-7.96v-30.47h11.94l6.24,22.04L699.43,644.44z M639.91,674.9v-30.47h12.29c4.69,0,7.91,0.61,9.65,1.85
		c1.75,1.24,2.62,3.4,2.62,6.5v2.45c0,2.06-0.5,3.67-1.49,4.84c-0.99,1.17-2.47,1.87-4.41,2.12c2.06,0.34,3.56,1.03,4.5,2.05
		c0.94,1.03,1.41,2.49,1.41,4.38v6.29h-8.34v-5.48c0-1.3-0.25-2.19-0.75-2.68c-0.5-0.48-1.42-0.73-2.77-0.73h-4.53v8.88H639.91z
		 M648.08,659.15h4.57c1.36,0,2.29-0.24,2.78-0.72c0.5-0.47,0.74-1.35,0.74-2.64v-1.17c0-1.29-0.25-2.19-0.75-2.67
		c-0.5-0.48-1.42-0.73-2.77-0.73h-4.57V659.15z M621.97,640.79v-5.28h4.82v5.28H621.97z M620.25,674.9v-30.47h8.26v30.47H620.25z
		 M590.78,668.12h6.08c1.87,0,3.1-0.34,3.69-1.01c0.59-0.66,0.88-2.3,0.88-4.91v-5.01c0-2.61-0.29-4.25-0.89-4.93
		c-0.59-0.68-1.82-1.03-3.68-1.03h-6.08V668.12z M582.61,674.9v-30.47h15.5c4.31,0,7.33,0.9,9.06,2.7c1.73,1.8,2.6,4.95,2.6,9.45
		v6.16c0,4.5-0.87,7.65-2.6,9.45c-1.73,1.8-4.75,2.7-9.06,2.7H582.61z M541.98,674.9v-30.47h12.15l9.47,22.63v-22.63h7.79v30.47
		h-12.15l-9.47-22.83v22.83H541.98z M508.2,674.9v-30.47h22.89v6.79h-14.72v5.28h14.29v5.87h-14.29v5.74h15.04v6.79H508.2z
		 M477.65,674.9v-30.47h8.26v23.38h13.62v7.08H477.65z M442.49,674.9v-30.47h12.29c4.69,0,7.91,0.61,9.65,1.85
		c1.75,1.24,2.62,3.4,2.62,6.5v2.45c0,2.06-0.5,3.67-1.49,4.84c-0.99,1.17-2.47,1.87-4.41,2.12c2.06,0.34,3.56,1.03,4.5,2.05
		c0.94,1.03,1.41,2.49,1.41,4.38v6.29h-8.34v-5.48c0-1.3-0.25-2.19-0.75-2.68c-0.5-0.48-1.42-0.73-2.77-0.73h-4.53v8.88H442.49z
		 M450.66,659.15h4.57c1.36,0,2.29-0.24,2.78-0.72c0.5-0.47,0.74-1.35,0.74-2.64v-1.17c0-1.29-0.25-2.19-0.75-2.67
		c-0.5-0.48-1.42-0.73-2.77-0.73h-4.57V659.15z M408.7,674.9v-30.47h22.89v6.79h-14.72v5.28h14.29v5.87h-14.29v5.74h15.04v6.79
		H408.7z M378.52,635.01h2.51c0.08,1.04,0.43,1.8,1.03,2.29c0.61,0.48,1.54,0.73,2.78,0.73c1.23,0,2.14-0.24,2.74-0.72
		c0.6-0.47,0.94-1.24,1.03-2.3h2.51c-0.15,2.13-0.73,3.69-1.74,4.7c-1.01,1-2.53,1.5-4.55,1.5c-2,0-3.53-0.5-4.55-1.52
		C379.26,638.69,378.67,637.13,378.52,635.01z M398.51,653.95h-8.16c-0.03-0.96-0.38-1.65-1.05-2.08c-0.68-0.43-1.77-0.64-3.28-0.64
		h-2.05c-1.87,0-3.1,0.34-3.7,1.02c-0.6,0.68-0.9,2.33-0.9,4.94v5.01c0,2.58,0.3,4.21,0.9,4.9c0.6,0.68,1.83,1.02,3.7,1.02h2.27
		c1.61,0,2.73-0.22,3.37-0.68c0.64-0.45,0.95-1.22,0.95-2.33v-1.19h-4.67v-5.7h12.63v5.21c0,4.11-0.9,7.12-2.71,9.01
		c-1.81,1.89-4.67,2.84-8.56,2.84h-5.55c-3.44,0-6.03-1.09-7.81-3.26c-1.77-2.18-2.65-5.39-2.65-9.63v-4.63
		c0-4.75,0.94-8.22,2.8-10.41c1.86-2.19,4.81-3.28,8.85-3.28h4.43c3.28,0,5.96,0.82,8.05,2.44c2.1,1.63,3.14,3.68,3.14,6.15V653.95z
		 M338.41,674.9v-30.47h22.89v6.79h-14.72v5.28h14.29v5.87h-14.29v5.74h15.04v6.79H338.41z M309.19,668.12h6.08
		c1.87,0,3.1-0.34,3.69-1.01c0.59-0.66,0.88-2.3,0.88-4.91v-5.01c0-2.61-0.29-4.25-0.89-4.93c-0.59-0.68-1.82-1.03-3.68-1.03h-6.08
		V668.12z M301.02,674.9v-30.47h15.5c4.31,0,7.33,0.9,9.06,2.7c1.73,1.8,2.6,4.95,2.6,9.45v6.16c0,4.5-0.87,7.65-2.6,9.45
		c-1.73,1.8-4.75,2.7-9.06,2.7H301.02z M259.43,684.75v-2.64h4.9c0.66,0,1.1-0.1,1.35-0.32c0.24-0.21,0.37-0.6,0.37-1.17
		c0-0.51-0.13-0.87-0.37-1.08c-0.24-0.22-0.65-0.32-1.22-0.32h-2.05v-4.32h2.1v2.01h2.02c1.05,0,1.83,0.3,2.34,0.91
		c0.5,0.61,0.75,1.55,0.75,2.84c0,1.59-0.37,2.66-1.1,3.23c-0.74,0.57-2.17,0.86-4.3,0.86H259.43z M276.4,663.17v0.88
		c0,3.97-0.87,6.84-2.62,8.6c-1.75,1.75-4.6,2.63-8.56,2.63h-2.77c-4.31,0-7.33-0.92-9.06-2.76c-1.73-1.84-2.6-5.07-2.6-9.7v-6.31
		c0-4.63,0.87-7.86,2.6-9.69c1.73-1.84,4.75-2.75,9.06-2.75h2.26c4.27,0,7.26,0.8,8.95,2.42c1.69,1.61,2.54,4.45,2.54,8.51v0.59
		h-8.13v-0.55c0-1.39-0.32-2.37-0.96-2.95c-0.64-0.57-1.76-0.86-3.35-0.86c-1.76,0-2.93,0.34-3.52,1.02
		c-0.59,0.68-0.88,2.33-0.88,4.93v5.01c0,2.6,0.29,4.24,0.88,4.92c0.59,0.68,1.76,1.01,3.52,1.01c1.65,0,2.79-0.31,3.42-0.94
		c0.63-0.62,0.94-1.72,0.94-3.31v-0.7H276.4z M213.03,674.9l8.76-30.47h12.56l8.56,30.47h-8.76l-1.37-5.32h-9.6l-1.39,5.32H213.03z
		 M224.67,663.38h6.67l-3.02-12.62h-0.53L224.67,663.38z M180.26,674.9v-30.47h12.29c4.69,0,7.91,0.61,9.65,1.85
		c1.75,1.24,2.62,3.4,2.62,6.5v2.45c0,2.06-0.5,3.67-1.49,4.84c-0.99,1.17-2.47,1.87-4.41,2.12c2.06,0.34,3.56,1.03,4.5,2.05
		c0.94,1.03,1.41,2.49,1.41,4.38v6.29h-8.34v-5.48c0-1.3-0.25-2.19-0.75-2.68c-0.5-0.48-1.42-0.73-2.77-0.73h-4.53v8.88H180.26z
		 M188.43,659.15H193c1.36,0,2.29-0.24,2.78-0.72c0.5-0.47,0.74-1.35,0.74-2.64v-1.17c0-1.29-0.25-2.19-0.75-2.67
		c-0.5-0.48-1.42-0.73-2.77-0.73h-4.57V659.15z M141.53,674.9l8.76-30.47h12.56l8.56,30.47h-8.76l-1.37-5.32h-9.6l-1.39,5.32H141.53
		z M153.17,663.38h6.67l-3.02-12.62h-0.53L153.17,663.38z"/>
</g>
</svg>
